<?xml version="1.0" encoding="UTF-8"?>
<svg version="1.1" xmlns="http://www.w3.org/2000/svg" width="3296" height="2547">
<path d="M0 0 C8.07660668 2.11681863 15.66726402 5.23594602 23.33236694 8.49105835 C27.30759912 10.17809908 31.29089004 11.84594392 35.2734375 13.515625 C36.12965195 13.87496628 36.98586639 14.23430756 37.86802673 14.60453796 C48.44537626 19.03665056 59.06650542 23.36129153 69.6875 27.6875 C71.7767795 28.53896785 73.86605354 29.39044907 75.95532227 30.24194336 C80.19185206 31.96827769 84.42863118 33.69399865 88.66552734 35.41943359 C97.92986073 39.19279034 107.19081652 42.97442043 116.45196533 46.75558472 C121.54466889 48.83477305 126.6375717 50.91347318 131.73046875 52.9921875 C132.74012695 53.40429977 133.74978516 53.81641205 134.79003906 54.24101257 C142.00176559 57.18457222 149.21373903 60.12752644 156.42578125 63.0703125 C168.61785272 68.04524612 180.80922361 73.02189372 193 78 C194.04837036 78.42806946 195.09674072 78.85613892 196.17687988 79.29718018 C202.44691071 81.85745268 208.71656383 84.41864651 214.98568726 86.98114014 C216.94067641 87.78011373 218.89577346 88.57882335 220.85098267 89.3772583 C223.53507426 90.47341838 226.21876301 91.57055873 228.90234375 92.66796875 C229.69875275 92.99297867 230.49516174 93.31798859 231.31570435 93.65284729 C236.77149382 95.88574691 236.77149382 95.88574691 239 97 C238.38494112 103.31175749 237.00388612 109.11581479 235.24267578 115.19946289 C234.95551823 116.20925359 234.66836067 117.21904428 234.37250137 118.2594347 C233.40237165 121.66546707 232.42377857 125.06901012 231.4453125 128.47265625 C230.73568806 130.95778585 230.02660883 133.44307118 229.31802368 135.92849731 C227.76182726 141.38395246 226.20131839 146.8381595 224.63806152 152.29159546 C222.28310418 160.50717763 219.93501887 168.72471261 217.58864594 176.9427501 C216.45139952 180.92587678 215.31392249 184.90893759 214.1763916 188.89198303 C213.82957635 190.10635907 213.82957635 190.10635907 213.47575474 191.34526795 C211.78120061 197.27823497 210.08537147 203.21083677 208.38903809 209.14329529 C200.98831729 235.0263427 193.6078217 260.91511063 186.23633075 286.80649686 C183.53977846 296.27757955 180.84276493 305.74853091 178.14575195 315.21948242 C177.6926703 316.81054819 177.6926703 316.81054819 177.23043549 318.43375671 C151.41056389 409.10262691 125.49842381 499.74492545 99.518507 590.36806202 C96.6902445 600.23396018 93.86345416 610.10027535 91.04019165 619.96760559 C89.93692704 623.8228446 88.83350187 627.67803762 87.72998047 631.53320312 C87.45821432 632.48271799 87.18644818 633.43223286 86.9064467 634.41052091 C83.08241496 647.76810203 79.234454 661.11861028 75.37144756 674.46496964 C73.2049584 681.95117908 71.04602272 689.43956035 68.88912755 696.92853904 C67.13572539 703.01428267 65.37274231 709.09713971 63.60246229 715.17799377 C62.52097696 718.9015783 61.44881345 722.62779763 60.37931323 726.35484028 C59.88172887 728.08160295 59.38023577 729.80724468 58.87459302 731.53166485 C58.18527284 733.88437269 57.50986514 736.24064744 56.83778381 738.59832764 C56.63410405 739.28108804 56.43042429 739.96384844 56.22057241 740.66729856 C55.16077511 744.44871648 54.72669819 747.2421566 56 751 C57.99729817 753.11332379 60.14343341 754.89024424 62.3828125 756.7421875 C64 759 64 759 63.99609375 762.04296875 C62.88609743 767.33527266 60.83872469 772.39055293 58.9375 777.4375 C58.56044922 778.45521484 58.18339844 779.47292969 57.79492188 780.52148438 C56.86946564 783.01670181 55.93769349 785.50936119 55 788 C49.63636283 787.36606842 45.06856621 785.62514219 40.1027832 783.62158203 C39.21809199 783.27017686 38.33340078 782.91877169 37.42190075 782.55671787 C34.46253466 781.37949706 31.50669042 780.19368395 28.55078125 779.0078125 C26.43171435 778.16266097 24.31244662 777.31801284 22.19299316 776.47383118 C16.43460131 774.17838617 10.67929934 771.875285 4.92456436 769.57069016 C0.08574056 767.63400264 -4.75486441 765.70178987 -9.59549427 763.76962185 C-54.78925269 745.72971877 -99.93711932 727.57509581 -145.08099556 709.41081238 C-163.91880873 701.83164333 -182.76821096 694.28181369 -201.625 686.75 C-230.44554 675.237943 -259.22888969 663.63496978 -288 652 C-287.51285299 646.73408951 -286.83951161 641.75175849 -285.37109375 636.65234375 C-285.05849609 635.55341797 -284.74589844 634.45449219 -284.42382812 633.32226562 C-284.09833984 632.20529297 -283.77285156 631.08832031 -283.4375 629.9375 C-283.10814453 628.78572266 -282.77878906 627.63394531 -282.43945312 626.44726562 C-281.6327331 623.62959134 -280.81945719 620.81399107 -280 618 C-271.67875128 618.57545408 -263.91983591 620.78364819 -255.9375 623.0625 C-254.58156159 623.44400461 -253.22544289 623.82486907 -251.86914062 624.20507812 C-248.57760403 625.13045674 -245.28802849 626.06224752 -242 627 C-241.74095886 626.09073509 -241.74095886 626.09073509 -241.47668457 625.1631012 C-239.67681947 618.98862169 -237.57030708 613.01102467 -235.21875 607.02734375 C-234.85335617 606.08822647 -234.48796234 605.14910919 -234.11149597 604.18153381 C-232.91118168 601.09880507 -231.7055441 598.01818685 -230.5 594.9375 C-229.64517464 592.74430216 -228.79077173 590.55093962 -227.93676758 588.35742188 C-226.16605576 583.81038285 -224.39354323 579.26405229 -222.61962891 574.71826172 C-219.01493601 565.47791132 -215.42836559 556.230547 -211.84359741 546.98245239 C-210.67380071 543.96465914 -209.50354429 540.94704443 -208.33325195 537.92944336 C-198.52419933 512.63172614 -188.7643758 487.31498558 -179 462 C-175.2713434 452.3331365 -171.54236202 442.66639847 -167.8125 433 C-167.35418793 431.81220947 -166.89587585 430.62441895 -166.42367554 429.40063477 C-159.74624571 412.09677488 -153.0494727 394.80050815 -146.3394165 377.50927734 C-137.12767395 353.76959636 -127.96263486 330.01193512 -118.79833984 306.25390625 C-113.74393388 293.15104811 -108.68608179 280.04951971 -103.62884521 266.94775391 C-102.25644792 263.39226102 -100.88407402 259.83675911 -99.51171875 256.28125 C-99.058573 255.10723633 -98.60542725 253.93322266 -98.1385498 252.72363281 C-95.35761858 245.51843673 -92.57751009 238.31292375 -89.79800415 231.10717773 C-80.33186875 206.5667327 -70.85516428 182.03053113 -61.3394165 157.50927734 C-52.61908918 135.03602785 -43.94049693 112.54672613 -35.26544189 90.05596924 C-32.09519019 81.83732332 -28.92272049 73.61953699 -25.74890327 65.40226746 C-24.25992455 61.54706695 -22.77119936 57.69176853 -21.28245068 53.83647919 C-20.10417258 50.78526458 -18.9256913 47.7341287 -17.74691772 44.68310547 C-16.43760839 41.2941154 -15.12885309 37.90491196 -13.8203125 34.515625 C-13.41047623 33.45476685 -13.00063995 32.39390869 -12.5783844 31.30090332 C-10.57881505 26.11869426 -8.59172819 20.93220742 -6.62792969 15.73632812 C-6.25626678 14.75404236 -5.88460388 13.77175659 -5.50167847 12.75970459 C-4.80415513 10.91318495 -4.10898108 9.06577558 -3.41653442 7.21734619 C-2.958741 6.0051944 -2.958741 6.0051944 -2.49169922 4.76855469 C-2.22622284 4.06108093 -1.96074646 3.35360718 -1.68722534 2.62469482 C-1 1 -1 1 0 0 Z " fill="#2086ED" transform="translate(2357,589)"/>
</svg>
