<?xml version='1.0' encoding='utf-8'?>
<svg xmlns="http://www.w3.org/2000/svg" width="354.24402mm" height="294.66385mm" viewBox="0 0 354.24402 294.66385" version="1.1" id="svg5" xml:space="preserve">
  
  
  <defs>
  </defs>
  <defs id="defs2" /><g id="layer1"><path style="fill: white;stroke-width:1" d="m 238.90489999999954 294.5159999999996 c -0.946,-0.127 -6.9653,-0.774 -13.3751,-1.441 -6.4097,-0.667 -14.8716,-1.568 -18.8047,-2.001 -3.9331,-0.434 -10.5481,-1.142 -14.7004,-1.574 -4.1514,-0.43 -13.8055,-1.443 -21.4536,-2.25 -7.648,-0.806 -18.7917,-1.949 -24.765,-2.539 -5.9722,-0.59 -16.2821,-1.661 -22.91,-2.381 -6.628,-0.72 -17.3553,-1.852 -23.8381,-2.517 -6.4818,-0.664 -14.4672,-1.498 -17.7456,-1.855 -3.2774,-0.356 -10.9645,-1.124 -17.0829,-1.707 -6.1185,-0.582 -11.7444,-1.128 -12.5012,-1.214 -2.5637,-0.289 -3.9952,-1.846 -4.2464,-4.616 -0.1832,-2.015 0.07,-2.404 2.7458,-4.238 1.1463,-0.785 2.809,-1.923 3.6979,-2.53 l 1.6147,-1.103 -2.0121,-0.589 c -1.1071,-0.324 -3.6218,-1.218 -5.5879,-1.988 -8.9383,-3.495 -17.7916,-4.272 -30.5911,-2.685 -5.3106,0.66 -11.2268,0.987 -14.3691,0.795 l -2.9801,-0.181 v -0.722 -0.722 l 5.8932,-0.162 c 3.2414,-0.09 8.2777,-0.427 11.1907,-0.751 3.8381,-0.428 6.9023,-0.592 11.1237,-0.597 8.572,-0.01 12.0487,0.532 19.6006,3.056 2.6218,0.876 6.0033,1.876 7.5129,2.222 1.5106,0.345 2.818,0.699 2.906,0.787 0.09,0.09 -0.02,0.282 -0.2302,0.43 -0.2142,0.149 -0.2703,0.229 -0.1241,0.178 0.3003,-0.105 0.4825,-0.211 6.3226,-3.668 4.2995,-2.544 4.9282,-2.941 12.2599,-7.723 2.3755,-1.55 4.3966,-2.682 4.9492,-2.771 1.4445,-0.235 6.1885,0.428 6.8392,0.954 0.999,0.809 0,1.849 -2.6939,2.799 -0.8599,0.303 -1.5065,0.282 -4.6218,-0.15 -3.3305,-0.463 -3.6739,-0.469 -4.2675,-0.08 -0.3544,0.232 -0.6447,0.512 -0.6447,0.623 0,0.11 0.7448,0.292 1.6548,0.405 2.3244,0.287 11.8504,0.346 12.0186,0.08 0.08,-0.124 0.8509,-0.818 1.7218,-1.543 1.4065,-1.17 1.7218,-1.317 2.828,-1.314 1.9981,0 18.165,1.717 26.1404,2.769 2.9121,0.384 10.1096,1.158 17.3492,1.866 2.1123,0.206 5.3897,0.565 7.2837,0.799 1.893,0.233 4.3365,0.479 5.4297,0.547 1.0921,0.07 2.7609,0.234 3.7079,0.369 0.947,0.134 3.0322,0.319 4.6349,0.409 4.2054,0.238 5.9492,0.397 20.5265,1.862 3.5688,0.359 10.6612,1.011 15.7596,1.451 5.0983,0.438 10.6411,0.978 12.3159,1.2 1.6758,0.221 4.7069,0.579 6.7371,0.797 2.0301,0.216 3.858,0.532 4.0622,0.701 0.2273,0.189 0.3314,0.646 0.2693,1.182 -0.1161,0.988 -0.1081,0.991 3.2985,1.25 0.983,0.07 2.0361,0.27 2.3404,0.433 0.6788,0.364 1.3034,1.788 1.3034,2.976 0,0.799 -0.2713,1.11 -2.848,3.26 -5.0473,4.214 -4.4707,3.92 -7.2906,3.712 -2.8891,-0.214 -19.1361,-1.963 -19.971,-2.149 -0.915,-0.206 -1.4095,-0.882 -1.4095,-1.93 0,-0.88 0.2523,-1.217 2.7149,-3.634 2.4105,-2.367 6.0353,-5.349 7.4608,-6.141 0.4655,-0.257 0.4425,-0.294 -0.2653,-0.434 -1.1372,-0.226 -6.2065,-0.647 -11.6312,-0.967 -2.6228,-0.154 -5.2745,-0.334 -5.8932,-0.401 -0.8048,-0.09 -1.1262,-0.02 -1.1262,0.222 0,0.668 -0.6346,1.245 -1.0591,0.963 -0.3463,-0.232 -0.3383,-0.301 0.07,-0.539 0.2553,-0.15 0.4635,-0.386 0.4635,-0.524 0,-0.304 -0.7138,-0.34 -0.8389,-0.04 -0.05,0.115 -0.6537,0.611 -1.3454,1.104 -0.6917,0.492 -1.2013,0.952 -1.1312,1.021 0.1752,0.175 2.3465,0.524 6.0604,0.975 3.4256,0.415 4.1713,0.275 5.0262,-0.946 0.3044,-0.435 0.4365,-0.478 0.6127,-0.2 0.1231,0.194 0.4485,0.476 0.7227,0.627 0.5997,0.33 1.4546,2.328 1.4686,3.434 0,0.701 -0.5666,1.308 -4.8902,5.164 -2.6938,2.404 -5.9993,5.359 -7.3447,6.566 -1.3454,1.207 -3.1613,2.742 -4.0352,3.41 l -1.5887,1.214 -2.4636,-0.171 c -1.3544,-0.09 -9.8163,-0.949 -18.8047,-1.898 -8.9884,-0.95 -19.7988,-2.081 -24.0232,-2.514 -11.1297,-1.139 -25.0934,-2.609 -27.546,-2.899 -1.1652,-0.137 -6.5879,-0.671 -12.0506,-1.184 -12.7354,-1.197 -39.1511,-4.111 -39.928,-4.405 -0.5085,-0.191 -0.5956,-0.419 -0.5956,-1.543 v -1.32 l -1.7028,1.247 -1.7028,1.246 -0.02,1.782 c -0.02,1.598 0.05,1.825 0.6167,2.198 0.4735,0.31 4.2705,0.78 14.9287,1.848 7.8612,0.788 15.293,1.555 16.5143,1.704 1.2213,0.149 8.2396,0.873 15.5964,1.608 7.3567,0.734 18.3222,1.863 24.3676,2.507 6.0453,0.645 14.8055,1.54 19.4674,1.99 4.6609,0.45 12.349,1.233 17.0829,1.738 4.735,0.506 15.6405,1.637 24.2355,2.513 8.594,0.877 17.116,1.766 18.9369,1.977 1.8209,0.21 9.9264,1.045 18.0109,1.854 8.0845,0.809 16.19,1.645 18.0109,1.859 4.3566,0.51 6.4498,0.498 7.587,-0.04 0.5015,-0.239 4.0953,-3.558 7.9854,-7.377 3.8901,-3.819 8.2857,-8.043 9.7682,-9.384 3.6769,-3.328 4.2395,-4.318 2.9331,-5.162 -0.7388,-0.478 -5.1354,-0.982 -8.1445,-0.934 -1.2383,0.02 -3.5027,-0.04 -5.0323,-0.136 l -2.7809,-0.172 -1.9191,1.867 c -1.0551,1.026 -1.8759,1.866 -1.8249,1.866 0.05,0 1.6187,0.234 3.4807,0.52 3.3395,0.512 3.3975,0.512 4.1003,0.01 0.3914,-0.28 0.8809,-0.712 1.0861,-0.961 0.4565,-0.554 2.3585,-1.955 2.6538,-1.955 0.4084,0 1.5957,2.362 1.6197,3.224 0.03,0.946 0.5376,0.417 -10.3509,10.745 l -4.5968,4.362 -2.9521,-0.12 c -3.4196,-0.139 -24.1914,-2.454 -25.6589,-2.859 -2.1473,-0.594 -2.0001,-2.334 0.3944,-4.662 1.93,-1.876 2.7719,-2.48 3.4646,-2.48 0.2753,0 1.2914,-0.759 2.2584,-1.688 2.7709,-2.662 8.5149,-7.647 9.9695,-8.653 1.2673,-0.875 1.4205,-0.913 3.5747,-0.888 1.2383,0.02 5.6489,0.285 9.8003,0.6 4.1514,0.316 10.442,0.749 13.9777,0.963 4.5988,0.278 6.651,0.504 7.2076,0.792 0.974,0.504 1.4184,1.969 1.1692,3.852 l -0.1772,1.338 -9.6822,9.524 c -6.0784,5.979 -10.0826,9.718 -10.7583,10.045 -1.2883,0.624 -4.0963,0.855 -6.5048,0.536 z m 2.0992,-11.015 c 0.8939,-0.752 1.0371,-1.449 0.4064,-1.972 -0.2242,-0.186 -1.6647,-0.455 -3.1993,-0.596 l -2.792,-0.257 -1.1702,1.148 c -0.6437,0.632 -1.1702,1.241 -1.1702,1.354 0,0.269 0.8389,0.468 3.0672,0.726 3.3836,0.393 3.9702,0.344 4.8581,-0.403 z m -8.6251,-1.456 c 1.9971,-1.758 2.1203,-1.688 -3.9361,-2.245 l -1.8539,-0.17 -1.2574,1.109 c -0.6927,0.61 -1.2583,1.215 -1.2583,1.347 0,0.291 0.6807,0.467 2.9131,0.753 3.6068,0.463 4.0372,0.4 5.3926,-0.794 z m -8.642,-1.188 c 1.006,-0.964 1.1822,-1.254 0.8659,-1.426 -0.2183,-0.118 -1.858,-0.367 -3.6439,-0.551 l -3.2464,-0.334 -1.2973,1.353 c -1.5026,1.567 -1.5056,1.563 1.6727,1.898 4.0803,0.431 4.2485,0.403 5.649,-0.94 z m 21.8549,-1.534 2.2894,-2.481 -0.7137,-0.33 c -0.3924,-0.183 -1.9871,-0.394 -3.5427,-0.471 l -2.829,-0.138 -2.2704,2.066 c -1.2483,1.137 -2.2263,2.11 -2.1733,2.163 0.05,0.05 1.1562,0.218 2.4506,0.364 1.3394,0.152 2.7539,0.483 3.2804,0.769 0.5106,0.276 0.9931,0.51 1.0732,0.52 0.08,0.01 1.1762,-1.098 2.4355,-2.462 z m -10.1717,-0.191 c 0.3874,-0.302 1.1713,-0.982 1.7429,-1.508 l 1.0391,-0.959 -0.7438,-0.198 c -0.4085,-0.109 -1.859,-0.282 -3.2224,-0.382 l -2.4796,-0.181 -1.2323,0.959 c -1.3634,1.062 -2.0972,1.965 -1.8219,2.24 0.2082,0.21 2.5557,0.486 4.5988,0.542 1.0731,0.03 1.5857,-0.09 2.1192,-0.513 z m -7.4238,-1.468 c 0.8279,-0.674 1.6538,-1.282 1.836,-1.353 0.4995,-0.191 0.3994,-0.862 -0.1312,-0.88 -0.2542,-0.01 -1.8339,-0.174 -3.5097,-0.367 l -3.0452,-0.351 -1.6557,1.616 c -0.9099,0.89 -1.6557,1.698 -1.6557,1.796 0,0.147 3.4576,0.561 6.0443,0.725 0.3764,0.02 1.1943,-0.433 2.1172,-1.186 z m -52.1007,-0.969 c 1.0261,-0.69 1.3224,-1.651 0.5816,-1.886 -1.017,-0.322 -6.1744,-0.955 -9.0845,-1.114 l -3.0462,-0.166 -1.0591,0.848 c -1.1512,0.922 -1.5777,1.494 -1.2613,1.687 0.1111,0.07 1.99,0.315 4.1743,0.548 8.0905,0.862 8.531,0.866 9.6952,0.08 z m 63.9792,-1.743 c 0.7048,-0.564 1.5556,-1.321 1.89,-1.685 l 0.6076,-0.661 -1.005,-0.172 c -0.5536,-0.09 -2.2564,-0.238 -3.786,-0.319 l -2.7819,-0.149 -1.5336,1.508 c -0.8439,0.829 -1.4966,1.546 -1.4505,1.592 0.05,0.05 1.5115,0.255 3.2554,0.465 1.7448,0.209 3.2514,0.395 3.3475,0.412 0.1001,0.02 0.7518,-0.427 1.4565,-0.991 z m 10.1407,0.03 c 0.7257,-0.882 0.7708,-1.028 0.3954,-1.302 -0.2323,-0.17 -1.4555,-0.383 -2.7199,-0.473 -1.2633,-0.09 -2.6347,-0.218 -3.0472,-0.284 -0.6196,-0.1 -0.988,0.107 -2.1182,1.195 l -1.3694,1.317 2.1192,0.02 c 1.1652,0.01 2.6558,0.12 3.3105,0.237 2.2774,0.404 2.5536,0.347 3.4296,-0.715 z m -88.6491,-0.256 c 0.6196,-0.543 1.1782,-1.021 1.2413,-1.064 0.4474,-0.308 -0.903,-0.636 -4.1424,-1.007 l -3.7599,-0.431 -1.2233,0.841 c -1.2804,0.882 -1.6818,1.462 -1.2854,1.858 0.2843,0.284 3.78,0.705 6.2566,0.753 1.7048,0.03 1.8379,-0.01 2.9131,-0.95 z m -10.3119,-1.124 c 0.5826,-0.589 1.1693,-1.069 1.3044,-1.069 0.3163,0 0.1041,-0.658 -0.2182,-0.678 -0.1332,-0.01 -1.875,-0.11 -3.8711,-0.225 l -3.6278,-0.211 -1.3374,1.153 c -0.7358,0.633 -1.3384,1.232 -1.3384,1.33 0,0.255 1.2723,0.498 3.9131,0.746 3.3685,0.316 3.9411,0.2 5.1754,-1.046 z m 80.9971,-0.153 c 1.4545,-1.387 1.5066,-1.479 0.951,-1.689 -0.3223,-0.122 -1.4806,-0.305 -2.5727,-0.406 -1.0932,-0.102 -2.1753,-0.237 -2.4055,-0.301 -0.2423,-0.07 -1.2654,0.582 -2.4296,1.542 -1.1071,0.913 -1.8719,1.69 -1.7008,1.728 0.6637,0.15 4.3426,0.526 5.4528,0.558 1.0731,0.03 1.2913,-0.08 2.7048,-1.432 z m -5.3797,-0.833 c 0.1913,-0.08 0.4195,-0.07 0.5076,0.02 0.09,0.09 -0.07,0.151 -0.3474,0.139 -0.3083,-0.01 -0.3714,-0.08 -0.1602,-0.16 z m -48.2126,1.359 c 1.1132,-0.465 2.4416,-1.635 2.4416,-2.149 0,-0.397 -0.3364,-0.478 -3.5758,-0.869 -1.3114,-0.158 -4.1714,-0.516 -6.3567,-0.795 -2.1852,-0.279 -5.6619,-0.658 -7.7271,-0.841 l -3.7539,-0.332 -1.0131,0.719 c -0.5576,0.395 -1.3524,0.997 -1.7658,1.337 l -0.7528,0.618 2.6067,0.306 c 1.4335,0.168 3.9171,0.49 5.5198,0.716 1.6017,0.225 5.2375,0.685 8.0775,1.023 2.841,0.337 5.1985,0.627 5.2395,0.645 0.04,0.02 0.5185,-0.152 1.0601,-0.378 z m -36.6695,-1.346 c 0.6797,-0.529 1.2353,-1.055 1.2353,-1.166 0,-0.383 -1.5897,-0.757 -3.9061,-0.92 -1.2753,-0.09 -2.5957,-0.219 -2.9361,-0.289 -0.3654,-0.08 -0.5526,-0.02 -0.4575,0.133 0.09,0.143 -0.3473,0.735 -0.969,1.315 -0.6216,0.579 -1.0321,1.152 -0.9129,1.272 0.2592,0.258 2.5406,0.525 4.9672,0.579 1.6297,0.04 1.8249,-0.02 2.9791,-0.924 z m -8.3548,-0.951 1.4506,-1.119 -0.7799,-0.318 c -0.4294,-0.175 -1.911,-0.401 -3.2934,-0.502 -2.2244,-0.164 -2.6338,-0.124 -3.5598,0.351 -1.3664,0.701 -2.4635,1.846 -1.946,2.032 0.6307,0.227 3.7399,0.608 5.2455,0.642 1.3014,0.03 1.5656,-0.07 2.883,-1.086 z m -9.1296,-0.464 c 1.4596,-1.039 2.3986,-1.852 2.2694,-1.965 -0.1031,-0.09 -10.5751,-1.195 -33.317,-3.515 l -6.9913,-0.713 -1.3514,0.718 c -1.8139,0.965 -2.6929,1.717 -2.3755,2.034 0.2693,0.269 1.7468,0.447 17.4463,2.105 23.9281,2.527 22.7379,2.461 24.3195,1.336 z m 119.5266,0.248 c 0.7538,-0.286 3.4886,-2.79 3.2744,-2.997 -0.07,-0.07 -1.6968,-0.263 -3.6208,-0.44 l -3.4987,-0.323 -1.3434,0.987 c -0.7388,0.542 -1.5176,1.324 -1.7308,1.736 l -0.3884,0.751 1.2563,0.165 c 0.6917,0.09 1.4355,0.203 1.6548,0.251 0.955,0.203 3.7359,0.122 4.3966,-0.13 z m -87.2987,-1.289 c 0.8008,-0.712 1.3834,-1.37 1.2933,-1.464 -0.09,-0.09 -1.3674,-0.241 -2.8389,-0.331 l -2.6758,-0.163 -1.0672,1.068 c -0.5876,0.588 -1.0681,1.193 -1.0681,1.348 0,0.154 0.5666,0.354 1.2583,0.445 0.6918,0.09 1.4365,0.203 1.6548,0.25 1.4355,0.307 2.0201,0.111 3.4436,-1.153 z m 60.0881,0.309 c 0.3834,-0.286 0.7358,-0.775 0.7818,-1.088 0.1181,-0.789 -0.8349,-1.101 -3.3455,-1.095 -2.0201,0 -2.0441,0.01 -3.0742,1.058 -0.5716,0.58 -0.961,1.131 -0.8649,1.227 0.2602,0.261 3.3305,0.589 4.6478,0.497 0.6367,-0.04 1.4706,-0.313 1.855,-0.599 z m -68.0865,0.09 c 0.3934,-0.207 1.1772,-0.853 1.7438,-1.438 l 1.0281,-1.063 -0.8959,-0.142 c -1.2904,-0.206 -6.5259,-0.414 -6.1024,-0.243 0.2482,0.101 0.02,0.487 -0.7528,1.275 -1.3084,1.333 -1.2003,1.475 1.3123,1.734 2.7339,0.28 2.9101,0.274 3.6669,-0.123 z m 34.3521,-0.231 c 0.973,-0.497 2.7809,-2.101 2.7809,-2.466 0,-0.501 -0.4705,-0.574 -6.621,-1.031 -2.9871,-0.223 -6.4067,-0.54 -7.6009,-0.705 l -2.1713,-0.301 -1.6237,1.407 c -1.2824,1.111 -1.5397,1.454 -1.2243,1.631 0.5065,0.283 6.1394,1.151 10.6351,1.638 3.4507,0.374 4.8381,0.333 5.8252,-0.173 z m 53.6643,-0.902 c 0.8399,-0.83 1.4676,-1.604 1.3955,-1.722 -0.07,-0.117 -1.4726,-0.213 -3.1103,-0.213 -2.8299,0 -3.0372,0.04 -4.1563,0.761 -1.4255,0.921 -2.4606,1.885 -2.2494,2.096 0.2673,0.268 2.3124,0.519 4.4947,0.554 l 2.0992,0.03 z m -27.0083,-0.09 c 0.6767,-0.644 1.021,-1.157 0.8719,-1.3 -0.1362,-0.129 -1.3805,-0.319 -2.7649,-0.42 l -2.5187,-0.183 -1.1902,1.06 c -0.6537,0.583 -1.1112,1.139 -1.0171,1.237 0.2473,0.253 2.5016,0.602 4.1203,0.639 1.2674,0.03 1.4706,-0.06 2.4987,-1.033 z m -68.2267,0.379 c 0.4885,-0.233 1.1953,-0.825 1.5717,-1.318 l 0.6837,-0.896 -0.6047,-0.129 c -0.3323,-0.07 -1.6957,-0.268 -3.0301,-0.438 -2.6919,-0.345 -2.9561,-0.257 -4.685,1.563 l -0.7538,0.794 1.4165,0.287 c 0.7789,0.159 1.6548,0.335 1.9461,0.392 1.2273,0.241 2.6257,0.138 3.4556,-0.255 z m 61.0972,-1.272 1.2142,-1.163 -2.3304,-0.426 c -1.2813,-0.235 -2.4916,-0.423 -2.6888,-0.419 -0.1982,0 -0.896,0.474 -1.5517,1.042 -1.4415,1.251 -1.2723,1.575 0.9731,1.862 2.9731,0.38 3.0732,0.36 4.3836,-0.896 z m -67.7942,-0.387 c 0.6937,-0.522 1.2213,-1.067 1.1722,-1.213 -0.09,-0.264 -2.1503,-0.746 -4.3596,-1.021 -1.0301,-0.128 -1.2753,-0.03 -2.7148,1.05 -0.8709,0.654 -1.5837,1.293 -1.5837,1.42 0,0.23 0.4645,0.34 3.1784,0.748 2.0161,0.302 2.8469,0.112 4.3075,-0.984 z m 31.6352,-0.677 c 0.8449,-0.787 1.4725,-1.495 1.3955,-1.575 -0.08,-0.08 -1.4806,-0.283 -3.1203,-0.454 l -2.9801,-0.312 -1.5737,1.5 c -1.0321,0.985 -1.4515,1.548 -1.2193,1.637 0.3083,0.118 3.6929,0.495 5.3787,0.6 0.3724,0.02 1.1412,-0.484 2.1192,-1.396 z m 54.6144,-0.199 c 0.8879,-0.751 1.6147,-1.511 1.6147,-1.688 0,-0.444 -1.2494,-0.654 -3.9052,-0.654 h -2.2493 l -1.5566,1.259 c -0.8559,0.691 -1.5577,1.331 -1.5577,1.422 0,0.09 0.923,0.251 2.0512,0.357 1.1292,0.105 2.2914,0.291 2.5827,0.412 0.988,0.412 1.4025,0.26 3.0202,-1.108 z m -94.3261,0.452 c 1.878,-1.233 2.3485,-1.707 1.951,-1.966 -0.2813,-0.182 -2.886,-0.482 -5.9352,-0.681 -0.2533,-0.02 -3.3996,2.561 -3.2764,2.684 0.1251,0.126 3.7889,0.537 5.1424,0.578 0.7968,0.02 1.4225,-0.157 2.1182,-0.615 z m -45.3707,-0.476 c 0.5266,-0.328 1.4326,-0.977 2.0142,-1.444 l 1.0571,-0.847 -0.8689,-0.143 c -2.3145,-0.381 -5.9783,-0.646 -6.5669,-0.474 -0.8029,0.235 -3.7059,2.169 -3.7059,2.469 0,0.239 0.7928,0.403 3.5757,0.742 2.9711,0.362 3.4837,0.328 4.4947,-0.303 z m 76.2411,0.348 c 0.8629,-0.327 2.5637,-1.836 2.5637,-2.272 0,-0.376 -0.8148,-0.538 -3.9912,-0.796 l -2.0031,-0.163 -1.3734,1.234 c -0.7548,0.679 -1.3735,1.326 -1.3735,1.437 0,0.644 4.8091,1.081 6.1775,0.56 z m -38.7787,-0.717 c 1.3784,-0.791 2.1422,-1.403 2.1422,-1.712 0,-0.371 -1.927,-0.763 -3.7499,-0.765 -1.6557,0 -1.8459,0.06 -3.0892,1.046 -0.7288,0.576 -1.3955,1.16 -1.4806,1.299 -0.09,0.142 0.6757,0.362 1.7649,0.506 2.939,0.39 3.1122,0.375 4.4126,-0.374 z m 93.4671,0.325 c 0.8079,-0.424 2.5988,-2.2 2.4086,-2.391 -0.07,-0.07 -1.3715,-0.196 -2.8961,-0.285 l -2.7709,-0.16 -1.2733,1.237 c -0.6997,0.68 -1.2173,1.292 -1.1502,1.361 0.1161,0.115 3.0292,0.502 4.3576,0.578 0.3343,0.02 0.9309,-0.134 1.3243,-0.34 z m -60.998,-1.313 1.5887,-1.422 -1.0592,-0.155 c -0.5826,-0.09 -2.0131,-0.229 -3.1783,-0.318 l -2.1182,-0.161 -1.3084,1.336 c -0.7197,0.735 -1.2483,1.397 -1.1742,1.47 0.1561,0.156 3.3735,0.591 4.7339,0.639 0.7689,0.03 1.1963,-0.208 2.5157,-1.389 z m 37.0149,-0.116 c 0.4004,-0.373 0.7277,-0.772 0.7277,-0.888 0,-0.582 -1.944,-1.019 -6.9413,-1.556 l -5.4727,-0.59 -1.2804,0.94 c -0.7037,0.517 -1.4905,1.172 -1.7488,1.458 -0.4525,0.499 -0.4475,0.524 0.1372,0.684 0.6316,0.173 4.8831,0.567 9.8763,0.916 3.1063,0.218 3.5277,0.13 4.702,-0.964 z m -114.7856,-0.07 c 0.8889,-0.593 1.6808,-1.183 1.7589,-1.311 0.1872,-0.301 -0.9951,-0.513 -4.1734,-0.745 l -2.5817,-0.188 -1.855,1.161 c -1.0201,0.639 -1.8549,1.258 -1.8549,1.378 0,0.119 0.6847,0.294 1.5226,0.388 0.8378,0.09 1.6417,0.213 1.7878,0.263 0.1452,0.05 1.0562,0.101 2.0222,0.112 1.6317,0.02 1.8739,-0.06 3.3735,-1.058 z m 39.2092,-0.03 c 1.5857,-1.19 2.2333,-1.74 1.6848,-1.43 -0.1792,0.1 -0.869,0 -1.5316,-0.227 -0.6637,-0.225 -1.7689,-0.409 -2.4556,-0.409 -1.0822,0 -1.4556,0.162 -2.795,1.213 -0.8499,0.668 -1.4815,1.278 -1.4034,1.355 0.2793,0.28 1.919,0.556 3.4546,0.583 1.4455,0.02 1.6778,-0.06 3.0462,-1.085 z m 92.9636,0.405 c 0.8239,-0.593 1.7739,-1.879 1.5476,-2.097 -0.04,-0.03 -1.2583,-0.145 -2.7168,-0.247 l -2.6538,-0.187 -1.4075,1.112 c -0.7738,0.612 -1.3434,1.175 -1.2673,1.252 0.1361,0.136 4.0452,0.795 5.0253,0.847 0.2683,0.01 0.931,-0.292 1.4725,-0.68 z m -61.7068,-0.646 1.6297,-1.087 -0.8709,-0.466 c -0.5105,-0.273 -1.8229,-0.544 -3.1783,-0.656 l -2.3084,-0.193 -1.4676,1.268 c -0.8709,0.752 -1.3704,1.363 -1.2283,1.504 0.2883,0.289 2.5627,0.64 4.4347,0.685 1.1802,0.03 1.5766,-0.111 2.9891,-1.055 z m -37.7236,-0.416 c 0.948,-0.682 1.7238,-1.322 1.7238,-1.421 0,-0.252 -2.1292,-0.519 -4.1423,-0.519 -1.2494,0 -1.8069,0.121 -2.1553,0.464 -0.2593,0.255 -0.8699,0.797 -1.3574,1.203 -0.4885,0.407 -0.8429,0.779 -0.7879,0.827 0.1552,0.137 3.1814,0.614 4.1364,0.651 0.6337,0.02 1.3104,-0.291 2.5827,-1.205 z m -42.3305,0.357 c 0.4125,-0.339 1.2624,-0.919 1.89,-1.288 l 1.1412,-0.671 -0.7438,-0.144 c -0.4094,-0.08 -2.5126,-0.298 -4.6749,-0.486 -3.874,-0.337 -3.9481,-0.333 -5.0322,0.242 -1.4966,0.796 -2.7329,1.814 -2.4937,2.056 0.2583,0.26 5.1454,0.84 7.3978,0.879 1.4866,0.03 1.886,-0.07 2.5156,-0.588 z m 72.365,-0.859 c 0.886,-0.667 1.6718,-1.308 1.7439,-1.426 0.2222,-0.36 -2.0982,-0.805 -4.1874,-0.805 h -1.9731 l -1.3624,1.225 c -0.7498,0.675 -1.2974,1.292 -1.2163,1.373 0.2483,0.248 3.1173,0.799 4.2835,0.822 0.912,0.02 1.3734,-0.184 2.7118,-1.189 z m 37.1461,-0.164 1.6537,-1.376 -0.7288,-0.195 c -0.4004,-0.107 -1.7738,-0.276 -3.0512,-0.376 l -2.3224,-0.182 -1.0041,1.367 c -0.5516,0.753 -0.959,1.413 -0.9039,1.468 0.06,0.05 1.1121,0.212 2.3494,0.349 1.2373,0.137 2.2734,0.265 2.3015,0.285 0.03,0.02 0.7968,-0.583 1.7058,-1.34 z m -74.1749,0.301 c 1.2653,-0.812 1.9971,-1.497 1.8028,-1.691 -0.06,-0.06 -1.3273,-0.245 -2.8229,-0.419 l -2.7189,-0.315 -1.4525,1.24 c -0.7988,0.683 -1.4525,1.344 -1.4525,1.47 0,0.244 1.2683,0.403 3.817,0.478 1.3394,0.04 1.7488,-0.07 2.827,-0.763 z m 28.7902,-0.375 c 1.3464,-0.706 2.851,-1.937 2.6328,-2.155 -0.07,-0.07 -1.2383,-0.3 -2.5878,-0.503 -2.903,-0.436 -3.5127,-0.267 -5.1314,1.419 -1.1602,1.209 -1.1361,1.245 1.0782,1.616 2.1382,0.359 2.7058,0.305 4.0082,-0.377 z m 39.069,-0.555 c 1.5587,-1.678 1.4265,-1.795 -2.3805,-2.116 l -2.1703,-0.183 -1.4024,1.338 c -0.7708,0.736 -1.3284,1.412 -1.2383,1.502 0.2682,0.268 3.4316,0.634 4.8811,0.565 1.1842,-0.06 1.4565,-0.187 2.3104,-1.106 z m -74.2159,-0.181 c 0.8529,-0.619 1.5546,-1.2 1.5586,-1.293 0.01,-0.244 -1.1822,-0.479 -3.3605,-0.661 l -1.912,-0.16 -1.922,1.421 -1.9211,1.422 1.4496,0.155 c 3.866,0.415 4.4306,0.333 6.1074,-0.884 z m -6.7011,-0.64 c 1.6568,-1.182 1.7048,-1.246 1.0932,-1.473 -0.3514,-0.131 -1.5927,-0.3 -2.7579,-0.375 l -2.1192,-0.137 -1.5447,1.236 c -0.8508,0.678 -1.4985,1.282 -1.4395,1.34 0.1652,0.165 2.871,0.58 4.0102,0.615 0.8249,0.02 1.3655,-0.212 2.7579,-1.206 z m 36.2771,-0.265 c 0.4735,-0.354 0.8609,-0.75 0.8609,-0.878 0,-0.251 -1.0471,-0.679 -1.4164,-0.579 -0.1232,0.03 -0.905,-0.07 -1.7369,-0.236 -1.7908,-0.352 -2.6968,-0.07 -4.4416,1.397 l -1.1062,0.928 1.3704,0.306 c 3.0973,0.693 4.5779,0.478 6.4698,-0.938 z m 36.0959,1.238 c 0.5156,-0.143 1.3975,-0.731 1.9601,-1.308 1.1943,-1.223 1.3564,-1.121 -2.5727,-1.607 l -2.3264,-0.287 -1.5827,1.377 c -0.8709,0.757 -1.5346,1.426 -1.4746,1.486 0.4695,0.469 4.672,0.707 5.9963,0.339 z m 58.7898,-0.662 c 0.3413,-0.364 0.5486,-0.734 0.4605,-0.822 -0.2243,-0.224 -5.732,-0.819 -5.9813,-0.646 -0.2863,0.199 -1.1002,1.413 -1.1002,1.641 0,0.25 1.2443,0.393 3.8611,0.445 1.9651,0.04 2.1883,-0.01 2.7599,-0.618 z m -139.2422,0.04 c 1.1572,-0.488 3.1783,-2.213 2.8379,-2.423 -0.1501,-0.09 -1.2543,-0.268 -2.4535,-0.389 -2.4246,-0.245 -2.5377,-0.212 -4.6169,1.371 -0.7578,0.577 -1.5917,1.006 -1.8539,0.954 -0.3434,-0.07 0,-0.421 1.2343,-1.262 1.6237,-1.106 1.6777,-1.177 1.0591,-1.376 -0.3584,-0.116 -2.7369,-0.441 -5.2856,-0.723 l -4.6338,-0.514 -2.7509,1.537 c -2.5457,1.422 -2.6939,1.548 -1.9871,1.689 1.1602,0.233 11.2017,1.009 11.426,0.883 0.1081,-0.06 1.2683,0.04 2.5797,0.218 3.2384,0.444 3.4686,0.446 4.4447,0.03 z m 74.3811,-0.726 c 1.8019,-1.508 1.7308,-1.973 -0.3334,-2.188 -0.8949,-0.09 -2.2403,-0.171 -2.9891,-0.171 -1.2824,0 -1.4375,0.08 -2.6598,1.319 -0.7148,0.725 -1.2383,1.378 -1.1642,1.452 0.1211,0.121 3.6118,0.546 5.2265,0.637 0.3804,0.02 1.1321,-0.388 1.92,-1.049 z m 57.4223,0.01 c 0.5606,-0.512 0.7958,-0.905 0.6376,-1.063 -0.1381,-0.138 -1.3824,-0.326 -2.7659,-0.417 l -2.5136,-0.165 -0.978,0.859 c -0.5386,0.473 -0.9781,0.958 -0.9781,1.08 0,0.259 1.2424,0.412 3.8471,0.474 1.7368,0.04 1.921,-0.01 2.7509,-0.768 z m -95.1409,-0.379 c 0.5095,-0.51 1.019,-0.927 1.1321,-0.927 0.1132,0 0.3424,-0.165 0.5096,-0.366 0.4094,-0.492 -0.2613,-0.671 -3.2845,-0.871 l -2.3835,-0.157 -1.5236,1.241 c -0.8368,0.682 -1.5226,1.346 -1.5226,1.474 0,0.314 1.0111,0.445 3.801,0.492 l 2.3435,0.04 z m 29.8283,-0.103 c 0.6086,-0.419 1.3254,-1.006 1.5927,-1.302 0.4725,-0.526 0.4705,-0.548 -0.09,-0.849 -0.3174,-0.169 -1.6858,-0.374 -3.0402,-0.455 l -2.4626,-0.147 -1.3705,1.283 c -1.3314,1.244 -1.3534,1.289 -0.7578,1.513 0.5907,0.223 3.1263,0.618 4.4077,0.688 0.3383,0.02 1.1131,-0.31 1.7218,-0.731 z m -37.7206,-0.08 c 1.4575,-0.777 2.3344,-1.72 1.954,-2.1 -0.1591,-0.159 -1.2983,-0.352 -2.5326,-0.429 -2.1683,-0.135 -2.2824,-0.113 -3.4026,0.658 -0.6367,0.44 -1.3785,1.044 -1.6477,1.344 -0.4835,0.537 -0.4775,0.545 0.5295,0.715 0.5606,0.09 1.1382,0.211 1.2844,0.26 0.8879,0.301 2.8419,0.07 3.815,-0.448 z m 30.3048,-0.719 c 0.6086,-0.424 1.3925,-1.041 1.7408,-1.371 l 0.6347,-0.601 -0.6347,-0.236 c -0.3483,-0.129 -1.5876,-0.302 -2.7529,-0.383 l -2.1192,-0.148 -1.5336,1.266 c -0.8439,0.696 -1.4405,1.359 -1.3244,1.473 0.1682,0.166 2.3745,0.524 4.5318,0.734 0.1922,0.02 0.8479,-0.311 1.4575,-0.734 z m -37.112,0.08 c 0.4525,-0.235 1.2754,-0.754 1.8289,-1.156 l 1.0071,-0.728 -0.7168,-0.334 c -0.3934,-0.184 -1.7298,-0.383 -2.9681,-0.444 l -2.2503,-0.111 -1.4385,1.309 -1.4376,1.309 1.1733,0.262 c 1.8419,0.41 3.8891,0.364 4.802,-0.107 z m -6.0133,-1.173 c 0.5826,-0.398 1.2733,-0.962 1.5346,-1.252 0.6037,-0.672 0.3794,-0.771 -2.2824,-1.012 -1.8029,-0.163 -2.0511,-0.123 -3.1373,0.514 -0.6487,0.38 -1.4425,0.971 -1.7638,1.313 l -0.5846,0.623 0.998,0.307 c 2.2033,0.678 3.7339,0.535 5.2355,-0.493 z m 87.3778,-0.114 c 1.7708,-1.376 1.8469,-1.317 -2.2244,-1.727 -2.4786,-0.25 -2.5266,-0.244 -3.1723,0.401 -0.4345,0.432 -0.5296,0.654 -0.2813,0.654 0.2633,0 0.2252,0.11 -0.1271,0.368 -0.2763,0.202 -0.6447,0.313 -0.8179,0.246 -0.1742,-0.07 -0.4064,0.03 -0.5185,0.207 -0.1412,0.229 -0.07,0.277 0.2382,0.16 0.2823,-0.109 0.4405,-0.03 0.4405,0.202 0,0.409 0.8078,0.562 3.3315,0.629 1.5276,0.04 1.6848,-0.02 3.1313,-1.14 z m -4.1454,-0.582 c 0.1822,-0.07 0.4805,-0.07 0.6627,0 0.1822,0.07 0.03,0.133 -0.3313,0.133 -0.3644,0 -0.5126,-0.06 -0.3314,-0.133 z m -46.7351,1.002 c 0.4665,-0.29 1.1833,-0.875 1.5927,-1.304 l 0.7438,-0.777 -0.6117,-0.166 c -0.3363,-0.09 -1.7808,-0.244 -3.2103,-0.341 l -2.5998,-0.175 -0.7267,0.796 c -0.3994,0.437 -1.0481,1.006 -1.4395,1.263 -1.3545,0.887 -0.957,1.037 3.0732,1.158 1.942,0.06 2.4716,-0.02 3.1783,-0.454 z m -42.2654,-1.365 1.6488,-1.246 -1.4936,-0.3 c -0.8219,-0.165 -2.2193,-0.3 -3.1052,-0.298 -1.5176,0 -1.7018,0.07 -3.1594,1.234 -1.3884,1.104 -1.4985,1.26 -1.0601,1.514 0.6227,0.362 3.0843,0.617 4.4617,0.462 0.7358,-0.08 1.5646,-0.501 2.7078,-1.366 z m 35.0909,0.456 c 2.0502,-1.671 1.9921,-1.949 -0.4515,-2.178 -1.1081,-0.104 -2.4365,-0.121 -2.9521,-0.04 -0.8689,0.142 -3.2734,1.81 -3.2734,2.273 0,0.286 2.6057,0.85 4.8241,1.044 0.2492,0.02 1.0831,-0.474 1.8529,-1.101 z m 50.9185,-0.172 1.4515,-1.315 -0.8519,-0.13 c -0.4695,-0.07 -1.6107,-0.203 -2.5367,-0.291 -1.5406,-0.148 -1.7728,-0.1 -2.7308,0.563 -1.0291,0.714 -1.7198,1.605 -1.4506,1.873 0.1622,0.164 2.5968,0.533 3.8101,0.58 0.6807,0.03 1.1572,-0.237 2.3084,-1.28 z m -93.4652,-0.819 c 1.0902,-0.735 1.912,-1.451 1.8269,-1.589 -0.09,-0.138 -0.6547,-0.256 -1.2653,-0.261 -0.6106,-0.01 -3.3745,-0.282 -6.1424,-0.616 l -5.0323,-0.605 -1.1923,0.647 c -0.6557,0.356 -1.8459,1.015 -2.6448,1.465 l -1.4525,0.818 0.923,0.183 c 0.5075,0.1 3.3065,0.386 6.2205,0.635 2.9131,0.25 5.3466,0.5 5.4077,0.557 0.4004,0.376 1.6417,-0.08 3.3515,-1.234 z m 35.4553,0.397 c 0.3814,-0.249 0.9269,-0.782 1.2122,-1.183 l 0.5196,-0.73 -0.5927,-0.166 c -0.3253,-0.09 -1.4965,-0.239 -2.6027,-0.33 l -2.0101,-0.166 -1.4805,1.342 -1.4816,1.34 1.7699,0.166 c 0.973,0.09 2.0081,0.202 2.2994,0.245 0.8739,0.129 1.6337,-0.04 2.3665,-0.518 z m 51.2448,-0.293 c 1.3854,-1.186 1.2343,-1.311 -1.891,-1.564 -1.8249,-0.148 -2.3625,-0.109 -2.6388,0.192 -0.1912,0.208 -0.6296,0.693 -0.975,1.079 l -0.6267,0.7 0.892,0.258 c 0.4905,0.141 1.6157,0.267 2.4996,0.28 1.4836,0.02 1.6958,-0.05 2.7399,-0.945 z m -6.6901,-0.487 c 0.6838,-0.654 1.1923,-1.237 1.1302,-1.294 -0.06,-0.06 -1.4275,-0.189 -3.0352,-0.292 l -2.924,-0.188 -0.8499,0.871 c -1.2724,1.301 -1.1342,1.495 1.2012,1.689 1.1292,0.09 2.2314,0.21 2.4506,0.257 0.2182,0.05 0.4845,0.101 0.5906,0.118 0.1071,0.02 0.7538,-0.506 1.4365,-1.161 z m -50.481,-0.37 c 0.7919,-0.713 1.3805,-1.358 1.3074,-1.436 -0.07,-0.08 -1.1082,-0.272 -2.3004,-0.435 -1.8319,-0.251 -2.3205,-0.233 -3.1473,0.112 -1.2874,0.538 -3.1103,2.177 -2.7019,2.43 0.1672,0.104 1.3845,0.269 2.7049,0.367 1.3194,0.1 2.4666,0.196 2.5477,0.218 0.08,0.02 0.7968,-0.543 1.5896,-1.256 z m 43.4216,-0.425 c 0.6427,-0.656 1.0551,-1.195 0.916,-1.197 -0.1402,0 -1.3244,-0.118 -2.6318,-0.255 -2.2714,-0.239 -2.4265,-0.221 -3.4786,0.395 -1.9581,1.148 -1.7058,1.886 0.6997,2.051 3.4646,0.238 3.2354,0.288 4.4947,-0.994 z m -51.3038,0.493 c 0.4654,-0.238 1.2833,-0.824 1.8169,-1.302 l 0.969,-0.868 -0.7048,-0.275 c -0.3874,-0.151 -1.4785,-0.345 -2.4255,-0.432 l -1.7218,-0.158 -1.5226,1.226 c -0.8379,0.674 -1.5236,1.33 -1.5236,1.458 0,0.127 0.4475,0.305 0.994,0.397 0.5456,0.09 1.1122,0.206 1.2573,0.255 0.6968,0.237 2.0972,0.09 2.8611,-0.301 z m 44.2825,-1.259 0.9069,-1.088 -2.6468,-0.276 -2.6457,-0.275 -1.2073,1.124 c -1.1532,1.073 -1.1803,1.131 -0.5876,1.258 0.3413,0.07 0.8589,0.187 1.1502,0.25 0.2913,0.06 1.3384,0.112 2.3264,0.106 1.7759,-0.01 1.8079,-0.02 2.7039,-1.099 z m 22.5156,0.898 c 0.09,-0.145 0.04,-0.265 -0.1171,-0.265 -0.1542,0 -0.2803,0.12 -0.2803,0.265 0,0.146 0.05,0.265 0.1171,0.265 0.06,0 0.1902,-0.119 0.2803,-0.265 z m -71.6803,-1.082 c 0.7478,-0.595 1.3595,-1.179 1.3595,-1.296 0,-0.357 -0.6798,-0.508 -3.1223,-0.693 l -2.3355,-0.176 -1.7528,1.201 c -1.5717,1.076 -1.6938,1.221 -1.1783,1.401 1.0491,0.365 2.4096,0.57 4.0503,0.608 1.5226,0.03 1.7028,-0.03 2.9791,-1.045 z m 41.89,-0.116 c 1.0571,-0.778 1.4345,-1.347 1.0531,-1.583 -0.1491,-0.09 -1.3414,-0.237 -2.6498,-0.322 l -2.3795,-0.154 -0.9409,0.998 c -0.5176,0.549 -0.881,1.058 -0.8069,1.132 0.1472,0.148 2.7129,0.507 4.0102,0.562 0.4925,0.02 1.1632,-0.226 1.7138,-0.633 z m -48.9184,-0.722 c 0.8169,-0.62 1.4886,-1.204 1.4936,-1.298 0.01,-0.249 -3.1253,-0.756 -4.6869,-0.756 -1.2213,0 -1.4605,0.11 -2.7079,1.231 -1.8139,1.63 -1.5386,1.863 2.2674,1.918 2.1363,0.03 2.1563,0.02 3.6338,-1.095 z m -8.7942,0.22 c 0.4915,-0.206 1.4155,-0.755 2.0552,-1.219 1.3724,-0.998 1.2132,-1.199 -1.1452,-1.448 -0.883,-0.09 -3.0062,-0.344 -4.718,-0.559 l -3.1113,-0.389 -2.0441,1.381 c -2.4286,1.637 -2.4756,1.596 2.4406,2.177 4.2024,0.496 5.4517,0.507 6.5228,0.06 z m 51.2829,-0.665 1.1261,-1.018 -1.1261,-0.157 c -4.0483,-0.564 -3.796,-0.588 -5.1154,0.493 -0.6677,0.548 -1.1162,1.093 -0.9961,1.211 0.1983,0.197 1.5717,0.349 4.0583,0.451 0.7338,0.03 1.1632,-0.174 2.0532,-0.98 z m -6.6841,-0.453 c 0.7989,-0.531 1.4526,-1.052 1.4526,-1.159 0,-0.252 -1.5316,-0.49 -4.4998,-0.7 -2.2253,-0.158 -2.3865,-0.136 -2.3945,0.333 0,0.277 -0.1832,0.735 -0.3974,1.017 -0.2142,0.283 -0.3884,0.608 -0.3884,0.721 0,0.34 1.6177,0.703 3.2484,0.728 1.3344,0.02 1.7098,-0.1 2.9791,-0.94 z m -7.7301,-0.65 c 1.2573,-0.833 1.6137,-1.558 0.7738,-1.573 -0.2552,0 -1.3424,-0.122 -2.4155,-0.261 -1.944,-0.252 -1.9581,-0.25 -2.9801,0.56 -1.2994,1.029 -1.3094,1.492 -0.03,1.705 0.5466,0.09 1.1122,0.207 1.2584,0.257 0.962,0.326 2.2643,0.06 3.3975,-0.688 z m -6.2525,-0.936 c 0.6446,-0.529 1.0741,-1.05 0.954,-1.158 -0.1202,-0.109 -1.2654,-0.329 -2.5447,-0.488 l -2.3265,-0.29 -1.1552,0.882 c -0.6376,0.486 -1.0761,1.009 -0.979,1.167 0.2012,0.325 2.3114,0.774 3.846,0.818 0.8199,0.02 1.2744,-0.168 2.2054,-0.931 z m -6.7822,-0.784 c 0.7118,-0.521 1.2934,-1.041 1.2934,-1.152 0,-0.112 -1.3364,-0.339 -2.9711,-0.506 l -2.9711,-0.302 -1.1332,1.111 c -0.6227,0.612 -1.0441,1.199 -0.935,1.305 0.2462,0.239 1.5496,0.397 3.7379,0.451 1.5486,0.04 1.7909,-0.03 2.9791,-0.907 z m -7.1254,-0.899 c 1.5085,-1.201 1.4565,-1.237 -2.1233,-1.484 l -2.6217,-0.18 -1.1102,1.003 c -1.3434,1.213 -1.1902,1.457 1.0831,1.726 2.4106,0.285 3.3355,0.08 4.7721,-1.065 z m -12.0377,-1.059 c 1.1772,-0.534 1.6457,-1.176 1.1913,-1.632 -0.1462,-0.146 -1.5176,-0.391 -3.0472,-0.546 -2.7629,-0.279 -2.789,-0.276 -4.0733,0.429 -1.5777,0.867 -2.3535,1.433 -2.1893,1.596 0.2142,0.215 3.4816,0.611 5.2675,0.639 1.1843,0.02 2.0742,-0.133 2.851,-0.486 z m 247.9724,41.673 c -0.3633,-0.05 -1.5556,-0.224 -2.6477,-0.379 -6.646,-0.944 -18.3253,-4.912 -29.3118,-9.956 -6.1375,-2.818 -7.4489,-3.872 -10.2838,-8.266 -1.7419,-2.699 -4.1664,-7.906 -3.9702,-8.526 0.1902,-0.598 3.2294,-2.529 5.9843,-3.803 2.3635,-1.091 5.9332,-2.166 8.561,-2.576 1.0301,-0.161 2.4676,-0.566 3.1963,-0.9 1.6297,-0.747 3.8871,-1.011 5.2966,-0.62 0.5836,0.162 3.0862,0.398 5.5628,0.525 10.0676,0.513 14.5753,1.798 21.0561,6 6.0174,3.902 13.4832,11.728 15.7276,16.487 1.7918,3.799 0.6637,6.774 -3.6258,9.562 -1.6648,1.081 -3.9041,1.903 -6.3898,2.344 -1.4555,0.257 -7.639,0.331 -9.1556,0.108 z m 11.2569,-1.805 c 2.5877,-0.7 4.771,-1.854 6.0683,-3.208 1.2093,-1.262 1.5617,-2.009 1.867,-3.956 l 0.1652,-1.059 -0.7889,1.353 c -0.8889,1.522 -2.5066,2.701 -4.9682,3.616 -1.3034,0.485 -2.1172,0.577 -5.1374,0.585 l -3.5877,0.01 -2.0492,-1.012 c -2.6768,-1.323 -3.6018,-2.503 -6.4017,-8.176 -2.3405,-4.741 -3.3345,-6.266 -5.3436,-8.196 -3.9161,-3.762 -7.6951,-5.547 -14.0458,-6.635 -4.1413,-0.71 -13.7484,-0.848 -17.6906,-0.254 -2.3574,0.354 -4.4036,1.038 -4.7409,1.584 -0.3824,0.62 1.03,0.784 6.8602,0.798 10.1676,0.02 14.8916,0.784 19.5825,3.145 5.2796,2.656 8.4749,6.276 12.0567,13.658 2.4365,5.02 4.7039,7.074 8.8583,8.022 2.0501,0.468 7.1045,0.32 9.2958,-0.273 z m -21.5817,-8.415 c -0.933,-2.577 -1.6998,-3.944 -3.4446,-6.138 -4.6599,-5.865 -11.6863,-8.291 -25.4297,-8.778 -2.2574,-0.08 -4.4587,-0.203 -4.8912,-0.271 -0.4484,-0.07 -0.6767,-0.03 -0.5305,0.101 0.1411,0.125 2.879,0.495 6.0844,0.822 10.3508,1.057 14.8285,2.014 18.8798,4.034 4.0192,2.007 7.3177,5.776 8.9694,10.249 0.3864,1.047 0.7618,1.845 0.8329,1.773 0.07,-0.07 -0.1402,-0.878 -0.4705,-1.792 z m -1.4565,-20.591 c -0.2333,-0.378 -3.3516,-1.291 -4.9683,-1.455 -1.3514,-0.138 -1.3404,-0.13 0.3754,0.259 0.9721,0.221 2.2834,0.635 2.9131,0.921 1.2493,0.568 1.929,0.678 1.6798,0.275 z m -8.6772,-1.928 c -0.1691,-0.515 -1.7568,-1.494 -2.94,-1.812 -1.7359,-0.468 -4.6419,0.03 -5.5619,0.948 -0.7758,0.775 -0.4835,0.917 1.6137,0.776 1.1292,-0.08 2.828,-0.03 3.775,0.108 2.5777,0.365 3.2384,0.361 3.1132,-0.02 z m -120.5796,24.289 c -9.2147,-1.095 -9.0495,-1.063 -9.567,-1.854 -0.7318,-1.116 -0.2853,-2.41 1.4325,-4.16 1.6287,-1.658 1.7468,-1.691 4.3956,-1.258 0.8909,0.146 4.4206,0.577 7.8442,0.956 3.4236,0.381 6.4318,0.802 6.685,0.935 0.9581,0.506 1.9891,3.6 1.5016,4.51 -0.1391,0.261 -0.6957,0.776 -1.2363,1.142 -1.2563,0.854 -1.6837,0.844 -11.0556,-0.271 z m 9.3759,-4.013 c 0.4434,-0.538 0.7768,-1.008 0.7407,-1.044 -0.04,-0.04 -1.1251,-0.198 -2.4185,-0.359 l -2.3525,-0.292 -1.017,0.993 c -1.3855,1.353 -1.0401,1.596 2.3394,1.65 1.884,0.03 1.909,0.02 2.7079,-0.948 z m -6.0794,-1.232 c 0.1732,-0.269 0.2723,-0.533 0.2202,-0.585 -0.05,-0.05 -1.0611,-0.176 -2.2413,-0.275 -2.0622,-0.172 -2.1813,-0.151 -3.1003,0.55 -1.6527,1.261 -1.3925,1.439 2.6197,1.795 0.8199,0.07 1.9161,-0.578 2.5017,-1.485 z m -6.7851,-0.07 c 0.5585,-0.518 0.958,-0.999 0.8889,-1.068 -0.07,-0.07 -0.934,-0.24 -1.923,-0.379 l -1.7969,-0.255 -0.8829,0.856 c -0.4856,0.47 -0.8419,0.98 -0.7929,1.131 0.08,0.244 1.4445,0.532 2.9631,0.626 0.2913,0.02 0.9861,-0.392 1.5437,-0.911 z m -0.952,-17.615 c 0.1791,-0.181 0.3934,-0.262 0.4744,-0.181 0.08,0.08 -0.07,0.23 -0.3263,0.329 -0.3774,0.144 -0.4084,0.113 -0.1481,-0.148 z m 22.7158,-3.044 c -1.7949,-0.185 -17.123,-1.39 -29.9294,-2.352 -6.7011,-0.502 -17.3082,-1.335 -23.5728,-1.849 -36.9077,-3.029 -36.5834,-2.989 -37.4053,-4.642 -0.3914,-0.785 -0.4434,-2.55 -0.08,-2.773 0.3753,-0.233 35.1969,-4.067 57.4853,-6.331 l 3.0462,-0.309 0.1822,-9.264 c 0.1001,-5.095 0.1001,-9.338 0,-9.426 -0.1001,-0.09 -6.3797,-0.422 -13.9546,-0.741 -7.575,-0.318 -21.1032,-0.928 -30.0626,-1.354 -8.9584,-0.427 -21.7118,-1.018 -28.3398,-1.316 -19.3463,-0.867 -27.5329,-1.336 -28.2927,-1.623 -0.8008,-0.303 -2.0692,-1.429 -2.4956,-2.215 -0.6006,-1.11 -0.6557,-2.484 -0.4425,-11.17 0.2213,-9.052 0.7989,-35.147 1.3064,-59.024 0.1522,-7.139 0.5085,-23.169 0.7918,-35.624 0.2843,-12.456 0.7008,-30.87 0.927,-40.922 0.8018,-35.64 0.7848,-35.151 1.2473,-36.026 0.5316,-1.007 1.6968,-2.181 2.6528,-2.675 0.4335,-0.225 4.0763,-0.759 8.8783,-1.303 4.4787,-0.507 12.7915,-1.459 18.4734,-2.115 5.681,-0.656 11.402,-1.316 12.7134,-1.468 1.3104,-0.151 8.5219,-0.986 16.0238,-1.854 7.5019,-0.869 19.8378,-2.296 27.4128,-3.17 7.5759,-0.874 16.5744,-1.94 19.997,-2.37 3.4236,-0.43 11.409,-1.387 17.7466,-2.127 14.8827,-1.736 44.2535,-5.37 59.8939,-7.408 18.5855,-2.423 35.8487,-4.716 40.9811,-5.444 2.5296,-0.358 4.9802,-0.652 5.4467,-0.652 0.999,0 4.2865,0.832 6.4418,1.631 1.8979,0.703 3.852,2.556 4.2845,4.063 0.2222,0.775 0.3723,19.844 0.5585,70.984 0.3354,91.823 0.3084,88.583 0.7558,89.39 0.2022,0.364 0.8689,1.258 1.4826,1.987 0.6126,0.728 1.2813,1.621 1.4866,1.986 0.3103,0.552 0.3854,4.615 0.4514,24.422 0.06,16.386 0,24.089 -0.2062,24.82 -0.3303,1.226 -1.5837,2.955 -2.9281,4.037 -1.2122,0.975 -3.0552,1.606 -7.1555,2.447 l -3.3245,0.682 -8.7271,-0.393 c -9.6502,-0.436 -27.2947,-1.309 -34.6835,-1.716 -7.2856,-0.402 -53.2068,-2.386 -55.222,-2.386 -0.5215,0 -0.5315,0.168 -0.5315,8.978 v 8.978 l 1.7879,0.164 c 4.0953,0.374 18.9649,1.216 49.6621,2.81 2.877,0.15 5.5288,0.386 5.8932,0.524 0.5696,0.216 0.6617,0.416 0.6617,1.432 0,1.509 -0.3524,2.427 -1.0811,2.817 -1.0051,0.538 -23.4316,4.685 -42.1703,7.798 -11.2608,1.87 -15.4813,2.359 -18.064,2.092 z m 14.8326,-4.717 c 4.807,-0.807 11.0646,-1.826 13.9046,-2.265 4.768,-0.735 8.621,-1.408 24.4917,-4.269 3.5077,-0.633 6.0854,-1.229 6.4898,-1.503 l 0.6697,-0.452 -0.6146,-0.09 c -0.3384,-0.05 -1.8279,0.104 -3.3105,0.342 -7.1875,1.152 -21.4415,3.396 -25.3416,3.988 -2.4035,0.366 -8.8994,1.402 -14.4352,2.302 -9.5009,1.546 -10.3168,1.637 -14.5673,1.64 -3.7889,0 -33.4821,-1.91 -36.6835,-2.361 -1.2083,-0.171 -13.8976,-1.099 -19.997,-1.464 -2.6217,-0.156 -8.7602,-0.568 -13.6403,-0.916 -11.8264,-0.843 -21.3985,-1.339 -21.6167,-1.121 -0.4635,0.463 0.5836,0.953 2.3625,1.104 12.5121,1.068 28.3027,2.287 46.5348,3.594 20.2843,1.456 36.9598,2.721 39.5966,3.006 3.0542,0.331 7.639,-0.106 16.157,-1.535 z m -17.8197,-7.735 c 0.3964,-0.203 0.8429,-0.598 0.993,-0.878 0.1742,-0.327 0.2723,-4.475 0.2723,-11.518 v -11.01 h -1.8229 -1.8239 l -0.1142,11.72 c -0.06,6.446 -0.06,11.876 0,12.065 0.1352,0.396 1.3304,0.214 2.4927,-0.379 z m 107.8192,-20.035 c 0.3934,-0.259 1.0441,-0.965 1.4445,-1.57 l 0.7278,-1.099 0.05,-13.926 c 0.04,-10.958 -0.01,-13.816 -0.2642,-13.416 -0.8269,1.317 -2.1633,2.525 -3.3626,3.041 l -1.3174,0.566 -14.5062,-0.262 c -7.9784,-0.146 -16.4132,-0.329 -18.7437,-0.408 -2.3314,-0.08 -10.1376,-0.261 -17.3482,-0.404 -21.945,-0.434 -63.0762,-1.441 -75.6184,-1.85 -4.3706,-0.143 -11.8795,-0.382 -16.6865,-0.531 -4.8071,-0.149 -12.1368,-0.389 -16.2891,-0.535 -21.6598,-0.762 -39.8479,-1.297 -62.2915,-1.833 -11.1717,-0.266 -11.2968,-0.289 -12.6673,-2.179 l -0.7357,-1.017 -0.1552,3.776 c -0.08,2.078 -0.2272,7.025 -0.3153,10.995 -0.1562,7.001 -0.1432,7.255 0.4054,8.388 1.0941,2.261 1.4685,2.339 13.9146,2.924 4.8071,0.226 11.0056,0.528 13.7735,0.673 2.7669,0.145 7.9523,0.386 11.5211,0.538 3.5687,0.151 13.9386,0.626 23.0432,1.053 9.1045,0.429 22.5126,1.022 29.7963,1.319 7.2836,0.297 13.6013,0.595 14.0377,0.663 0.4375,0.07 4.788,0.251 9.6672,0.405 4.8801,0.155 11.0786,0.392 13.7734,0.528 7.0404,0.357 15.2721,0.719 30.0616,1.324 25.1494,1.029 32.8044,1.385 51.2508,2.388 21.852,1.188 25.6059,1.251 26.8302,0.449 z m -6.1715,-15.555 c -0.2913,-0.291 -0.5295,-0.625 -0.5295,-0.743 0,-0.546 0.7738,-1.177 1.4415,-1.177 1.2513,0 1.6497,1.316 0.6186,2.037 -0.7578,0.531 -0.8929,0.521 -1.5306,-0.117 z m 1.0601,-0.943 c 0,-0.226 -0.1191,-0.338 -0.2652,-0.249 -0.1452,0.09 -0.2643,0.276 -0.2643,0.413 0,0.138 0.1191,0.25 0.2643,0.25 0.1461,0 0.2652,-0.186 0.2652,-0.414 z m 9.2748,15.856 c 1.6617,-0.537 3.0041,-1.772 3.803,-3.5 0.5606,-1.211 0.5626,-1.307 0.5626,-25.45 v -24.235 l -0.6737,-0.975 c -0.6878,-0.994 -4.9232,-5.514 -5.1675,-5.514 -0.07,0 -0.06,12.624 0.02,28.052 0.1092,19.386 0.07,28.374 -0.1231,29.094 -0.1541,0.573 -0.6517,1.554 -1.1051,2.181 l -0.8259,1.139 1.0481,-0.168 c 0.5766,-0.09 1.6838,-0.373 2.4596,-0.624 z m -5.3937,-26.77 c 1.3444,-0.704 2.5627,-2.134 2.9671,-3.484 0.3964,-1.323 0.3764,-38.542 -0.07,-124.24 -0.3084,-59.672 -0.3754,-65.361 -0.7739,-66.126 -0.6066,-1.165 -2.1392,-2.36 -3.5277,-2.749 -1.3904,-0.389 -0.7307,-0.454 -16.1209,1.588 -6.701,0.888 -15.4022,2.029 -19.3353,2.535 -3.9331,0.505 -10.7273,1.396 -15.0969,1.979 -4.3705,0.582 -10.4489,1.362 -13.5081,1.733 -3.0593,0.371 -10.6873,1.319 -16.9508,2.108 -6.2646,0.789 -14.5603,1.796 -18.4364,2.237 -9.3028,1.059 -16.3562,1.898 -27.9143,3.319 -5.2445,0.645 -13.349,1.602 -18.0109,2.127 -4.6619,0.525 -10.3229,1.183 -12.5812,1.462 -2.2574,0.28 -8.9324,1.054 -14.8316,1.719 -5.9002,0.666 -14.7795,1.685 -19.7327,2.265 -4.9532,0.579 -14.9047,1.709 -22.1163,2.512 -14.7845,1.646 -14.8736,1.667 -16.219,3.844 l -0.7308,1.182 -0.2653,10.723 c -0.3653,14.805 -0.99,43.066 -1.4545,65.814 -0.7868,38.512 -1.2062,58.524 -1.4515,69.206 -0.2643,11.51 -0.2543,11.651 0.922,13.193 1.2293,1.611 1.2353,1.612 14.6974,1.944 17.2952,0.428 47.5079,1.296 50.9855,1.467 1.6027,0.08 8.575,0.32 15.4943,0.537 6.9193,0.217 15.9177,0.514 19.997,0.659 11.1327,0.399 24.0212,0.743 49.529,1.327 12.6733,0.289 28.1086,0.644 34.3001,0.789 6.1905,0.145 16.7986,0.388 23.5727,0.54 25.5558,0.577 25.1474,0.58 26.659,-0.21 z m -16.4623,-3.679 c -2.3304,-0.04 -11.1507,-0.256 -19.5996,-0.479 -19.4484,-0.51 -47.3337,-1.113 -67.8042,-1.467 -28.0865,-0.485 -54.8946,-1.182 -91.6422,-2.384 -4.5158,-0.148 -14.5873,-0.444 -22.3815,-0.659 l -14.1699,-0.393 -0.7698,-0.849 -0.7708,-0.848 0.1762,-9.55 c 0.1001,-5.253 0.2903,-13.484 0.4324,-18.291 0.3424,-11.654 0.9821,-39.679 1.3244,-58.005 0.7148,-38.228 1.2984,-65.593 1.4315,-67.092 0.1261,-1.418 0.94,-2.343 2.2444,-2.55 0.5305,-0.08 5.1954,-0.572 10.3669,-1.085 5.1714,-0.512 11.3689,-1.165 13.7724,-1.45 4.0973,-0.486 10.6202,-1.204 25.4267,-2.796 3.4236,-0.369 10.6943,-1.195 16.157,-1.835 5.4627,-0.641 13.8656,-1.591 18.6726,-2.112 4.8071,-0.521 11.9586,-1.357 15.8917,-1.857 3.9331,-0.501 11.5021,-1.396 16.8187,-1.99 5.3175,-0.592 15.9247,-1.846 23.5727,-2.787 7.648,-0.94 16.9448,-2.062 20.6587,-2.492 3.7149,-0.431 11.5221,-1.38 17.3492,-2.11 12.9416,-1.622 39.8409,-4.928 43.3536,-5.33 2.9901,-0.341 3.9791,-0.04 4.5808,1.413 0.3724,0.896 0.5485,19.958 1.2333,133.187 0.2452,40.401 0.2412,51.197 -0.02,51.821 -0.1801,0.433 -0.6246,1.068 -0.988,1.41 -0.6467,0.608 -0.7798,0.622 -5.8722,0.639 -2.865,0.01 -7.1174,-0.02 -9.4479,-0.06 z m 13.0437,-3.732 c 0.5176,-0.459 0.5196,-0.877 0.2943,-44.696 -0.1261,-24.327 -0.3193,-64.936 -0.4314,-90.243 -0.1472,-33.549 -0.2833,-46.091 -0.5006,-46.309 -0.2222,-0.222 -3.2944,0.05 -11.9145,1.049 -6.3887,0.742 -14.7144,1.704 -18.5024,2.138 -3.787,0.435 -10.8784,1.263 -15.7585,1.841 -4.8802,0.578 -12.1508,1.419 -16.157,1.87 -4.0062,0.45 -10.5611,1.229 -14.5673,1.731 -4.0062,0.5 -13.0647,1.573 -20.1291,2.382 -7.0655,0.81 -15.204,1.769 -18.085,2.132 -14.9948,1.887 -70.1918,8.021 -97.7927,10.868 -5.2436,0.541 -9.7833,1.074 -10.0876,1.185 -0.6397,0.232 -0.5957,-1.014 -1.3004,36.666 -0.4034,21.54 -0.909,44.776 -1.5937,73.234 -0.6837,28.385 -0.938,41.656 -0.8028,41.791 0.1271,0.128 3.1953,0.218 28.8823,0.847 6.4097,0.158 21.7849,0.578 34.1669,0.936 41.6077,1.202 93.0918,2.23 137.9929,2.755 28.1826,0.331 25.696,0.348 26.2866,-0.177 z" id="path71" fill="white" /></g></svg>